<svg width="607" height="374" viewBox="0 0 607 374" fill="none" xmlns="http://www.w3.org/2000/svg">
<g style="mix-blend-mode:multiply" opacity="0.15">
<path d="M326.082 0H279.255V46.7547H326.082V0Z" fill="#FFD252"/>
<path d="M326.082 46.7547H279.255V93.5094H326.082V46.7547Z" fill="#FF4C00"/>
<path d="M326.082 93.5094H279.255V140.264H326.082V93.5094Z" fill="#FF4C00"/>
<path d="M326.082 140.245H279.255V187H326.082V140.245Z" fill="#FFB31A"/>
<path d="M326.082 187H279.255V233.755H326.082V187Z" fill="#FFB31A"/>
<path d="M326.082 233.755H279.255V280.509H326.082V233.755Z" fill="#FF4C00"/>
<path d="M326.082 280.509H279.255V327.264H326.082V280.509Z" fill="#FCFFBD"/>
<path d="M326.082 327.245H279.255V374H326.082V327.245Z" fill="#FF9B00"/>
<path d="M372.908 0H326.082V46.7547H372.908V0Z" fill="#FF4C00"/>
<path d="M372.908 46.7547H326.082V93.5094H372.908V46.7547Z" fill="#FF9B00"/>
<path d="M372.908 93.5094H326.082V140.264H372.908V93.5094Z" fill="#FF9B00"/>
<path d="M372.908 140.245H326.082V187H372.908V140.245Z" fill="#FF0000"/>
<path d="M372.908 187H326.082V233.755H372.908V187Z" fill="#FF4C00"/>
<path d="M372.908 233.755H326.082V280.509H372.908V233.755Z" fill="#FFD252"/>
<path d="M372.908 280.509H326.082V327.264H372.908V280.509Z" fill="#FF9B00"/>
<path d="M372.908 327.245H326.082V374H372.908V327.245Z" fill="#FF7500"/>
<path d="M419.715 0H372.889V46.7547H419.715V0Z" fill="#FF4C00"/>
<path d="M419.715 46.7547H372.889V93.5094H419.715V46.7547Z" fill="#FF7500"/>
<path d="M419.715 93.5094H372.889V140.264H419.715V93.5094Z" fill="#FFB31A"/>
<path d="M419.715 140.245H372.889V187H419.715V140.245Z" fill="#FF4C00"/>
<path d="M419.715 187H372.889V233.755H419.715V187Z" fill="#FF7500"/>
<path d="M419.715 233.755H372.889V280.509H419.715V233.755Z" fill="#FF9B00"/>
<path d="M419.715 280.509H372.889V327.264H419.715V280.509Z" fill="#FFD252"/>
<path d="M419.715 327.245H372.889V374H419.715V327.245Z" fill="#FF7500"/>
<path d="M466.541 0H419.715V46.7547H466.541V0Z" fill="#FF9B00"/>
<path d="M466.541 46.7547H419.715V93.5094H466.541V46.7547Z" fill="#FFB31A"/>
<path d="M466.541 93.5094H419.715V140.264H466.541V93.5094Z" fill="#FF7500"/>
<path d="M466.541 140.245H419.715V187H466.541V140.245Z" fill="#FF9B00"/>
<path d="M466.541 187H419.715V233.755H466.541V187Z" fill="#FF4C00"/>
<path d="M466.541 233.755H419.715V280.509H466.541V233.755Z" fill="#FF7500"/>
<path d="M466.541 280.509H419.715V327.264H466.541V280.509Z" fill="#FF9B00"/>
<path d="M466.541 327.245H419.715V374H466.541V327.245Z" fill="#FF4C00"/>
<path d="M513.367 0H466.541V46.7547H513.367V0Z" fill="#FF7500"/>
<path d="M513.367 46.7547H466.541V93.5094H513.367V46.7547Z" fill="#FF7500"/>
<path d="M513.367 93.5094H466.541V140.264H513.367V93.5094Z" fill="#FF0000"/>
<path d="M560.193 187H513.367V233.755H560.193V187Z" fill="#FF0000"/>
<path d="M560.193 46.7547H513.367V93.5094H560.193V46.7547Z" fill="#FF9B00"/>
<path d="M607 187H560.174V233.755H607V187Z" fill="#FF4C00"/>
<path d="M607 233.755H560.174V280.509H607V233.755Z" fill="#FF0000"/>
<path d="M607 93.5094H560.174V140.264H607V93.5094Z" fill="#FF4C00"/>
<path d="M513.367 140.245H466.541V187H513.367V140.245Z" fill="#FF4C00"/>
<path d="M513.367 187H466.541V233.755H513.367V187Z" fill="#FF7500"/>
<path d="M513.367 233.755H466.541V280.509H513.367V233.755Z" fill="#FF4C00"/>
<path d="M560.193 233.755H513.367V280.509H560.193V233.755Z" fill="#FF4C00"/>
<path d="M513.367 280.509H466.541V327.264H513.367V280.509Z" fill="#FF9B00"/>
<path d="M513.367 327.245H466.541V374H513.367V327.245Z" fill="#FF7500"/>
<path d="M279.255 0H232.429V46.7547H279.255V0Z" fill="#FFD252"/>
<path d="M279.255 46.7547H232.429V93.5094H279.255V46.7547Z" fill="#FF9B00"/>
<path d="M279.255 93.5094H232.429V140.264H279.255V93.5094Z" fill="#FFD252"/>
<path d="M279.255 140.245H232.429V187H279.255V140.245Z" fill="#FCFFBD"/>
<path d="M279.255 187H232.429V233.755H279.255V187Z" fill="#FFD252"/>
<path d="M279.255 233.755H232.429V280.509H279.255V233.755Z" fill="#FCFFBD"/>
<path d="M279.255 280.509H232.429V327.264H279.255V280.509Z" fill="#FF9B00"/>
<path d="M279.255 327.245H232.429V374H279.255V327.245Z" fill="#FFB31A"/>
<path d="M232.429 0H185.603V46.7547H232.429V0Z" fill="#FF9B00"/>
<path d="M232.429 46.7547H185.603V93.5094H232.429V46.7547Z" fill="#FFB31A"/>
<path d="M232.429 93.5094H185.603V140.264H232.429V93.5094Z" fill="white"/>
<path d="M232.429 140.245H185.603V187H232.429V140.245Z" fill="#FFD252"/>
<path d="M232.429 187H185.603V233.755H232.429V187Z" fill="white"/>
<path d="M232.429 233.755H185.603V280.509H232.429V233.755Z" fill="#FFB31A"/>
<path d="M232.429 280.509H185.603V327.264H232.429V280.509Z" fill="#FF4C00"/>
<path d="M232.429 327.245H185.603V374H232.429V327.245Z" fill="#FFD252"/>
<path d="M187.285 0H140.459V46.7547H187.285V0Z" fill="white"/>
<path d="M187.285 46.7547H140.459V93.5094H187.285V46.7547Z" fill="white"/>
<path d="M187.285 93.5094H140.459V140.264H187.285V93.5094Z" fill="#FFD252"/>
<path d="M187.285 140.245H140.459V187H187.285V140.245Z" fill="#FCFFBD"/>
<path d="M93.6521 233.755H46.826V280.509H93.6521V233.755Z" fill="#FCFFBD"/>
<path d="M187.285 187H140.459V233.755H187.285V187Z" fill="#FFB31A"/>
<path d="M187.285 233.755H140.459V280.509H187.285V233.755Z" fill="#FFD252"/>
<path d="M93.6521 327.245H46.826V374H93.6521V327.245Z" fill="#FFD252"/>
<path d="M187.285 280.509H140.459V327.264H187.285V280.509Z" fill="#FCFFBD"/>
<path d="M187.285 327.245H140.459V374H187.285V327.245Z" fill="white"/>
<path d="M140.478 0H93.6521V46.7547H140.478V0Z" fill="white"/>
<path d="M140.478 46.7547H93.6521V93.5094H140.478V46.7547Z" fill="#FFD252"/>
<path d="M140.478 93.5094H93.6521V140.264H140.478V93.5094Z" fill="#FF9B00"/>
<path d="M140.478 140.245H93.6521V187H140.478V140.245Z" fill="white"/>
<path d="M140.478 187H93.6521V233.755H140.478V187Z" fill="#FFD252"/>
<path d="M93.6521 187H46.826V233.755H93.6521V187Z" fill="white"/>
<path d="M46.826 187H0V233.755H46.826V187Z" fill="#FCFFBD"/>
<path d="M140.478 233.755H93.6521V280.509H140.478V233.755Z" fill="white"/>
<path d="M140.478 280.509H93.6521V327.264H140.478V280.509Z" fill="#FCFFBD"/>
<path d="M140.478 327.245H93.6521V374H140.478V327.245Z" fill="white"/>
</g>
</svg>
