<svg width="470" height="306" viewBox="0 0 470 306" fill="none" xmlns="http://www.w3.org/2000/svg">
<g style="mix-blend-mode:soft-light" opacity="0.2">
<path fill-rule="evenodd" clip-rule="evenodd" d="M34.4959 306H0L120.99 178.381H121.128V90.89H92.617V59.777L151.291 0.869812H181.868L186.827 5.84788L193.438 0.869812H240.543V30.556L270.95 0H358.883V33.0336V52.4165L411.044 0H466.105L469.393 3.30335V29.7302L418.44 81.758L423.371 87.126H465.284L469.393 91.6681V119.747L411.044 178.381H350.23L325.793 153.824L301.357 178.381H210.958V147.825V132.547V120.577L152.118 178.816H151.992L34.4959 306ZM184.304 306H91.8523L210.958 178.381H301.401L184.304 306ZM296.772 306H234.855L350.617 178.381H410.486L296.772 306ZM321.467 115.617V90.8422H273.415V115.617H321.467ZM341.19 70.1963L341.625 69.7591V47.0728H272.593V70.1963H341.19ZM273.415 2.47751H356.418V28.0785H273.415V2.47751ZM382.281 87.5389V33.0336L411.866 3.30335H466.105V29.3173H423.371L408.579 44.5953V76.803L421.728 90.4293H466.105V115.617H410.222L382.281 87.5389ZM183.108 30.3234V117.855H209.139V32.3976L180.215 3.35885H154.597V30.3234H183.108ZM238.064 3.35885H199.223L224.841 29.0789H238.064V3.35885Z" fill="white"/>
</g>
</svg>
