<svg width="70" height="70" viewBox="0 0 70 70" fill="none" xmlns="http://www.w3.org/2000/svg">
<path d="M35.0001 68.5072C53.5057 68.5072 68.5074 53.5055 68.5074 35C68.5074 16.4944 53.5057 1.49268 35.0001 1.49268C16.4945 1.49268 1.49283 16.4944 1.49283 35C1.49283 53.5055 16.4945 68.5072 35.0001 68.5072Z" fill="#DEFB48"/>
<path fill-rule="evenodd" clip-rule="evenodd" d="M31.4838 68.335V33.0069H19.6281V21.7943H30.2811L42.3083 33.8694V67.6857C42.712 67.5946 43.113 67.4963 43.511 67.3907V46.1173L55.3668 33.8694V20.7593H35.7794L33.0302 22.8293L30.9684 20.7593H18.2535L1.49261 37.5867C2.72682 53.7518 15.4314 66.7088 31.4838 68.335ZM54.3358 21.7943H38.1849L48.8375 32.4894H54.3358V21.7943Z" fill="#0B0A15"/>
</svg>
