<svg width="70" height="70" viewBox="0 0 70 70" fill="none" xmlns="http://www.w3.org/2000/svg">
<path opacity="0.5" d="M35 68.5C53.5015 68.5 68.5 53.5015 68.5 35C68.5 16.4985 53.5015 1.5 35 1.5C16.4985 1.5 1.5 16.4985 1.5 35C1.5 53.5015 16.4985 68.5 35 68.5Z" fill="url(#paint0_linear)"/>
<path fill-rule="evenodd" clip-rule="evenodd" d="M32.5897 68V28.3794H21.0903V17.5039H31.4231L43.0887 29.216V62.0158C43.4803 61.9274 43.8692 61.832 44.2553 61.7296V41.0957L55.7546 29.216V16.5H36.7561L34.0896 18.5078L32.0897 16.5H19.757L2 34.5C2 50 11 65 32.5897 68ZM54.7547 17.5039H39.0893L49.4216 27.8775H54.7547V17.5039Z" fill="#38CCB6"/>
<path d="M20.5903 28.3794V28.8794H21.0903H32.0897V67.873C15.0824 66.2407 2.10132 52.6526 2.00059 35.2046L19.9661 17H31.882L33.7353 18.8607L34.0425 19.1691L34.3903 18.9072L36.9233 17H55.2546V17.0039H54.7547H39.0893H37.8856L38.735 17.8567L49.0674 28.2304L49.214 28.3775H49.4216H54.7547H55.2546V29.0137L43.896 40.7479L43.7553 40.8933V41.0957V66.7975C43.6998 66.8115 43.6443 66.8253 43.5887 66.839V29.216V29.0095L43.4429 28.8632L31.7773 17.151L31.6307 17.0039H31.423H21.0903H20.5903V17.5039V28.3794Z" stroke="#38CCB6"/>
<path d="M43.0999 67.513C40.5095 68.1553 37.8002 68.4961 35.0112 68.4961C34.2007 68.4961 33.397 68.4673 32.6009 68.4107V28.3756H21.1015V17.5H31.4343L43.0999 29.2122V67.513Z" fill="white"/>
<path d="M54.756 17.5H39.0906L49.4229 27.8736H54.756V17.5Z" fill="white"/>
<defs>
<linearGradient id="paint0_linear" x1="96.5" y1="-22.5" x2="23" y2="59.5" gradientUnits="userSpaceOnUse">
<stop stop-color="#38CCB6"/>
<stop offset="1" stop-color="#38CCB6" stop-opacity="0"/>
</linearGradient>
</defs>
</svg>
